<svg width="72" height="72" viewBox="0 0 72 72" fill="none" xmlns="http://www.w3.org/2000/svg">
<g filter="url(#filter0_dd_4606_68)">
<rect x="6" y="2.91309" width="60" height="58.7111" rx="14" fill="url(#paint0_linear_4606_68)"/>
</g>
<path fill-rule="evenodd" clip-rule="evenodd" d="M51.7308 25.6863H21.2692C20.5683 25.6863 20 25.1325 20 24.4493V13.9352C20 13.252 20.5683 12.6982 21.2692 12.6982H26.9808C27.6817 12.6982 28.25 13.252 28.25 13.9352V17.6461H31.4231V13.9352C31.4231 13.252 31.9913 12.6982 32.6923 12.6982H40.3077C41.0087 12.6982 41.5769 13.252 41.5769 13.9352V17.6461H44.75V13.9352C44.75 13.252 45.3183 12.6982 46.0192 12.6982H51.7308C52.4317 12.6982 53 13.252 53 13.9352V24.4493C53 25.1325 52.4317 25.6863 51.7308 25.6863ZM23.8076 29.3972V28.1602C23.8076 27.823 24.0942 27.5418 24.4478 27.5418H48.552C48.9072 27.5418 49.1922 27.8186 49.1922 28.1602V29.3972C46.9179 29.3976 44.8764 30.3694 43.481 31.91C42.0853 30.3689 40.0431 29.3972 37.7678 29.3972H35.2321C32.9574 29.3972 30.9156 30.3689 29.5199 31.9095C28.1242 30.3689 26.0823 29.3972 23.8076 29.3972ZM49.8283 31.2527C47.1791 31.2527 44.8456 32.5707 43.481 34.5705C42.1165 32.5705 39.783 31.2527 37.1332 31.2527H35.8667C33.2178 31.2527 30.8846 32.5704 29.5199 34.5698C28.1552 32.5704 25.822 31.2527 23.173 31.2527C22.4721 31.2527 21.9038 31.8065 21.9038 32.4896V51.044C21.9038 51.7271 22.4721 52.2809 23.173 52.2809H29.5206H29.5209C30.2211 52.28 30.7884 51.7266 30.7884 51.044V38.6744C30.7884 35.9419 33.0622 33.7266 35.8667 33.7266H37.1332C39.9384 33.7266 42.2115 35.9411 42.2115 38.6744V51.044C42.2115 51.7271 42.7798 52.2809 43.4807 52.2809H49.8283C50.5293 52.2809 51.0975 51.7271 51.0975 51.044V32.4896C51.0975 31.8065 50.5293 31.2527 49.8283 31.2527ZM44.75 46.0409L48.4131 43.2643C48.4601 43.2286 48.5089 43.1967 48.5591 43.1685V40.103L44.75 42.9903V46.0409ZM48.4131 37.0796L44.75 39.8563V38.6744C44.75 36.8583 45.7544 35.2707 47.2515 34.41C48.0069 33.9757 48.5591 33.8503 48.5591 33.8503V36.9838C48.5089 37.0121 48.4601 37.044 48.4131 37.0796ZM44.75 49.1751V49.8071H48.5591V46.2878L44.75 49.1751ZM24.587 43.2643C24.5404 43.229 24.4921 43.1973 24.4424 43.1693V40.104L28.2515 42.9913V46.042L24.587 43.2643ZM24.4424 36.9846C24.4921 37.0126 24.5404 37.0443 24.5871 37.0796L28.2515 39.8573V38.6745C28.2515 36.3649 26.6271 34.4248 24.4424 33.8796V36.9846ZM24.4424 49.807V46.2888L28.2515 49.1761V49.807H24.4424Z" fill="white"/>
<defs>
<filter id="filter0_dd_4606_68" x="0" y="0.913086" width="72" height="70.7112" filterUnits="userSpaceOnUse" color-interpolation-filters="sRGB">
<feFlood flood-opacity="0" result="BackgroundImageFix"/>
<feColorMatrix in="SourceAlpha" type="matrix" values="0 0 0 0 0 0 0 0 0 0 0 0 0 0 0 0 0 0 127 0" result="hardAlpha"/>
<feOffset dy="4"/>
<feGaussianBlur stdDeviation="3"/>
<feColorMatrix type="matrix" values="0 0 0 0 0 0 0 0 0 0 0 0 0 0 0 0 0 0 0.05 0"/>
<feBlend mode="normal" in2="BackgroundImageFix" result="effect1_dropShadow_4606_68"/>
<feColorMatrix in="SourceAlpha" type="matrix" values="0 0 0 0 0 0 0 0 0 0 0 0 0 0 0 0 0 0 127 0" result="hardAlpha"/>
<feOffset dy="1"/>
<feGaussianBlur stdDeviation="1.5"/>
<feColorMatrix type="matrix" values="0 0 0 0 0 0 0 0 0 0 0 0 0 0 0 0 0 0 0.1 0"/>
<feBlend mode="normal" in2="effect1_dropShadow_4606_68" result="effect2_dropShadow_4606_68"/>
<feBlend mode="normal" in="SourceGraphic" in2="effect2_dropShadow_4606_68" result="shape"/>
</filter>
<linearGradient id="paint0_linear_4606_68" x1="-18.875" y1="29.7612" x2="34.705" y2="89.6313" gradientUnits="userSpaceOnUse">
<stop stop-color="#3142C6"/>
<stop offset="1" stop-color="#AF61D1"/>
</linearGradient>
</defs>
</svg>
